<?xml version="1.0" standalone="no"?>
<!DOCTYPE svg PUBLIC "-//W3C//DTD SVG 20010904//EN"
 "http://www.w3.org/TR/2001/REC-SVG-20010904/DTD/svg10.dtd">
<svg version="1.0" xmlns="http://www.w3.org/2000/svg"
 width="160.000000pt" height="160.000000pt" viewBox="0 0 160.000000 160.000000"
 preserveAspectRatio="xMidYMid meet">
<metadata>
Created by potrace 1.14, written by Peter Selinger 2001-2017
</metadata>
<g transform="translate(0.000000,160.000000) scale(0.100000,-0.100000)"
fill="#000000" stroke="none">
<path d="M726 1593 c-2 -2 -44 -5 -94 -6 -76 -2 -96 -6 -121 -25 -17 -12 -35
-22 -40 -22 -16 0 -52 -53 -48 -71 2 -9 -3 -21 -13 -27 -22 -13 -34 -70 -19
-88 6 -8 7 -14 2 -14 -14 0 -41 -52 -47 -95 -15 -94 -18 -188 -6 -195 7 -4 9
-13 6 -19 -4 -6 -12 -9 -17 -6 -5 4 -9 0 -10 -7 -2 -34 -9 -53 -27 -68 -16
-12 -113 -275 -102 -275 2 0 -1 -9 -7 -20 -11 -20 -16 -43 -29 -140 -10 -78
-13 -110 -20 -262 -10 -215 -12 -213 264 -218 109 -2 211 -7 227 -10 39 -10
243 -10 320 -1 100 12 122 16 208 42 45 14 91 27 102 29 54 12 208 100 243
140 40 45 50 82 26 92 -25 9 -15 23 17 23 41 0 54 17 53 70 -2 67 -11 80 -50
80 -37 0 -44 13 -17 29 15 8 15 12 -8 45 -56 84 -157 128 -271 121 -40 -3
-111 -7 -158 -9 -218 -8 -312 -61 -455 -251 -31 -43 -65 -72 -103 -93 -31 -15
-37 -15 -25 0 16 21 42 96 48 135 3 21 8 101 11 178 3 77 7 161 8 187 2 29 -1
52 -9 58 -18 15 -16 120 2 120 7 0 13 6 13 14 0 17 11 25 41 31 28 6 69 33 69
45 0 6 12 10 26 10 17 0 39 13 62 36 27 27 47 37 77 40 39 4 65 24 65 51 0 7
10 13 23 13 49 0 77 43 55 83 -7 14 -6 26 3 43 11 21 9 30 -12 70 -13 25 -30
49 -39 52 -8 3 -22 14 -31 24 -14 18 -183 71 -193 61z m-112 -208 c11 -8 21
-23 23 -33 6 -31 8 -37 17 -50 5 -8 1 -21 -10 -33 -16 -18 -18 -18 -36 -2 -14
12 -17 24 -13 43 14 53 13 60 -8 75 -14 10 -16 15 -7 15 8 0 24 -7 34 -15z"/>
</g>
</svg>
